<?xml version="1.0" encoding="utf-8"?>
<!-- Generator: Adobe Illustrator 12.0.0, SVG Export Plug-In  -->
<!DOCTYPE svg PUBLIC "-//W3C//DTD SVG 1.1//EN" "http://www.w3.org/Graphics/SVG/1.1/DTD/svg11.dtd" [
	<!ENTITY ns_flows "http://ns.adobe.com/Flows/1.0/">
	<!ENTITY ns_svg "http://www.w3.org/2000/svg">
	<!ENTITY ns_xlink "http://www.w3.org/1999/xlink">
]>
<svg  version="1.1" xmlns="&ns_svg;" xmlns:xlink="&ns_xlink;" xmlns:a="http://ns.adobe.com/AdobeSVGViewerExtensions/3.0/"
	 width="805" height="100" viewBox="-0.714 -0.17 805 100" enable-background="new -0.714 -0.17 805 100" xml:space="preserve">
<defs>
</defs>
<path fill="#8EC31F" d="M51.065,47.134c0,0-5.313-6.184-7.614-16.358s-0.647-19.178,3.123-25.033
	c4.9-7.609,18.525-7.376,21.869,2.072"/>
<path fill="#16902D" d="M51.07,47.136c0,0,8.15-0.238,17.219-5.392c9.068-5.154,14.61-12.441,16.396-19.171
	c2.324-8.748-7.026-18.66-16.262-14.768"/>
<path fill="#8EC31F" d="M52.561,51.61c0,0,6.067-5.445,16.19-7.964c10.122-2.519,19.16-1.061,25.094,2.582
	c7.713,4.735,7.774,18.362-1.6,21.909"/>
<path fill="#16902D" d="M52.559,51.616c0,0,0.414,8.143,5.76,17.098c5.349,8.955,12.754,14.338,19.521,15.979
	c8.796,2.135,18.503-7.427,14.413-16.577"/>
<path fill="#8EC31F" d="M48.817,52.958c0,0,5.174,6.3,7.247,16.524c2.073,10.223,0.22,19.188-3.68,24.957
	c-5.069,7.498-18.685,6.961-21.817-2.559"/>
<path fill="#16902D" d="M48.812,52.956c0,0-8.153,0.057-17.334,5.005c-9.181,4.951-14.883,12.113-16.82,18.802
	c-2.519,8.693,6.608,18.811,15.929,15.125"/>
<path fill="#8EC31F" d="M46.578,49.032c0,0-6.343,5.122-16.583,7.108c-10.24,1.988-19.189,0.06-24.926-3.887
	C-2.387,47.121-1.737,33.51,7.81,30.458"/>
<path fill="#16902D" d="M46.58,49.027c0,0,0.012-8.153-4.86-17.375c-4.875-9.222-11.988-14.984-18.661-16.976
	c-8.672-2.591-18.866,6.451-15.258,15.802"/>
<path fill="#006B33" d="M702,99.625c2.677,0.025,11.624,0.553,19.584-1.084c11.75-2.416,19.749-16.834,21.666-20.167
	s3.584-8.749,2.916-8.749c-0.666,0-4.166,5.999-4.166,5.999s-5.667,10.584-12.25,15s-9.396,4.761-16.5,5
	c-7.416,0.25-11.25,0.25-11.25,0.25H101.536c0,0-3.833,0-11.25-0.25c-7.103-0.239-9.917-0.584-16.5-5s-12.25-15-12.25-15
	s-3.5-5.999-4.167-5.999s1,5.416,2.917,8.749s9.917,17.751,21.667,20.167c7.959,1.637,16.907,1.109,19.583,1.084H702z"/>
<path fill="#8EC31F" d="M752.471,47.134c0,0,5.313-6.184,7.613-16.358s0.647-19.178-3.123-25.033
	c-4.9-7.609-18.524-7.376-21.869,2.072"/>
<path fill="#16902D" d="M752.465,47.136c0,0-8.149-0.238-17.219-5.392c-9.068-5.154-14.609-12.441-16.396-19.171
	c-2.323-8.748,7.027-18.66,16.263-14.768"/>
<path fill="#8EC31F" d="M750.975,51.61c0,0-6.067-5.445-16.189-7.964c-10.123-2.519-19.16-1.061-25.095,2.582
	c-7.713,4.735-7.774,18.362,1.601,21.909"/>
<path fill="#16902D" d="M750.977,51.616c0,0-0.414,8.143-5.76,17.098c-5.35,8.955-12.755,14.338-19.521,15.979
	c-8.796,2.135-18.504-7.427-14.413-16.577"/>
<path fill="#8EC31F" d="M754.719,52.958c0,0-5.175,6.3-7.248,16.524c-2.072,10.223-0.22,19.188,3.68,24.957
	c5.07,7.498,18.686,6.961,21.818-2.559"/>
<path fill="#16902D" d="M754.724,52.956c0,0,8.153,0.057,17.334,5.005c9.181,4.951,14.884,12.113,16.819,18.802
	c2.52,8.693-6.607,18.811-15.929,15.125"/>
<path fill="#8EC31F" d="M756.958,49.032c0,0,6.344,5.122,16.584,7.108c10.24,1.988,19.189,0.06,24.926-3.887
	c7.455-5.132,6.806-18.743-2.741-21.795"/>
<path fill="#16902D" d="M756.957,49.027c0,0-0.012-8.153,4.86-17.375c4.874-9.222,11.988-14.984,18.66-16.976
	c8.672-2.591,18.866,6.451,15.258,15.802"/>
<text transform="matrix(1 0 0 1 99.6211 84.043)" fill="#095C31" font-family="'HGPMinchoE'" font-size="97.7954">YuzouYamada</text>
</svg>
